<svg width="112" height="112" viewBox="0 0 112 112" fill="none" xmlns="http://www.w3.org/2000/svg">
<g clip-path="url(#clip0_212_87)">
<path d="M107.484 5C101.771 5 97.135 18.7884 97.135 35.8007H107.484C112.474 35.8007 114.963 35.8007 116.509 34.081C118.049 32.3561 117.782 30.0872 117.248 25.5543C115.821 13.5729 111.991 5 107.484 5Z" stroke="white" stroke-width="7" stroke-linecap="round" stroke-linejoin="round"/>
<path d="M97.1352 36.0779V90.4514C97.1352 98.208 97.1352 102.089 94.7635 103.619C90.8878 106.114 84.897 100.877 81.8837 98.978C79.394 97.4072 78.1517 96.6269 76.7708 96.5807C75.2769 96.5294 74.009 97.284 71.3191 98.978L61.509 105.164C58.8602 106.832 57.5409 107.669 56.0676 107.669C54.5943 107.669 53.2698 106.832 50.6261 105.164L40.8212 98.978C38.3264 97.4072 37.0841 96.6269 35.7032 96.5807C34.2094 96.5294 32.9414 97.284 30.2515 98.978C27.2381 100.877 21.2474 106.114 17.3665 103.619C15 102.089 15 98.2131 15 90.4514V36.0779C15 21.427 15 14.1067 19.5123 9.55337C24.0195 5 31.2833 5 45.8007 5H107.402" stroke="white" stroke-width="7" stroke-linecap="round" stroke-linejoin="round"/>
<path d="M56.0676 35.8007C50.3951 35.8007 45.8007 39.2504 45.8007 43.5009C45.8007 47.7514 50.3951 51.201 56.0676 51.201C61.74 51.201 66.3344 54.6507 66.3344 58.9012C66.3344 63.1517 61.74 66.6014 56.0676 66.6014M56.0676 35.8007C60.5337 35.8007 64.3427 37.9413 65.7492 40.9341M56.0676 35.8007V30.6672M56.0676 66.6014C51.6015 66.6014 47.7924 64.4607 46.3859 61.4679M56.0676 66.6014V71.7348" stroke="white" stroke-width="7" stroke-linecap="round" stroke-linejoin="round"/>
</g>
<defs>
<clipPath id="clip0_212_87">
<rect width="112" height="112" fill="white"/>
</clipPath>
</defs>
</svg>
