<svg width="90" height="90" viewBox="0 0 90 90" fill="none" xmlns="http://www.w3.org/2000/svg">
<path d="M45 37.5C46.7236 37.5 48.4303 37.1605 50.0227 36.5009C51.6151 35.8413 53.062 34.8745 54.2808 33.6558C55.4995 32.437 56.4663 30.9901 57.1259 29.3977C57.7855 27.8053 58.125 26.0986 58.125 24.375C58.125 22.6514 57.7855 20.9447 57.1259 19.3523C56.4663 17.7599 55.4995 16.313 54.2808 15.0942C53.062 13.8755 51.6151 12.9087 50.0227 12.2491C48.4303 11.5895 46.7236 11.25 45 11.25C41.519 11.25 38.1806 12.6328 35.7192 15.0942C33.2578 17.5556 31.875 20.894 31.875 24.375C31.875 27.856 33.2578 31.1944 35.7192 33.6558C38.1806 36.1172 41.519 37.5 45 37.5Z" fill="white" stroke="white" stroke-width="4.08333" stroke-linecap="round" stroke-linejoin="round"/>
<path d="M22.5 13.603C20.7624 14.811 19.3432 16.4218 18.3636 18.2976C17.384 20.1735 16.8733 22.2587 16.875 24.3749C16.8745 26.6394 17.46 28.8656 18.5744 30.8369C19.6889 32.8082 21.2944 34.4577 23.235 35.6249M67.5 13.603C69.2376 14.811 70.6568 16.4218 71.6364 18.2976C72.616 20.1735 73.1267 22.2587 73.125 24.3749C73.127 26.4914 72.6164 28.577 71.6368 30.4532C70.6573 32.3294 69.2379 33.9405 67.5 35.1487" stroke="white" stroke-width="4.08333" stroke-linecap="round" stroke-linejoin="round"/>
<path d="M22.5 75V78.75H67.5V75C67.5 68.0119 67.5 64.5169 66.3581 61.7587C64.8353 58.0836 61.9149 55.1639 58.2394 53.6419C55.485 52.5 51.99 52.5 45 52.5C38.01 52.5 34.5169 52.5 31.7606 53.6419C29.9405 54.3957 28.2867 55.5007 26.8937 56.8937C25.5007 58.2867 24.3957 59.9405 23.6419 61.7606C22.5 64.5169 22.5 68.0119 22.5 75Z" fill="white" stroke="white" stroke-width="4.08333" stroke-linecap="round" stroke-linejoin="round"/>
<path d="M82.5 78.75V76.5C82.5 68.1 82.5 63.9 80.865 60.69C79.4269 57.8677 77.1323 55.5731 74.31 54.135M7.5 78.75V76.5C7.5 68.1 7.5 63.9 9.135 60.69C10.5731 57.8677 12.8677 55.5731 15.69 54.135" stroke="white" stroke-width="4.08333" stroke-linecap="round" stroke-linejoin="round"/>
</svg>
