<svg width="105" height="105" viewBox="0 0 105 105" fill="none" xmlns="http://www.w3.org/2000/svg">
<path d="M91.875 59.0625H98.4375V0H91.875V59.0625ZM26.25 36.0938L32.8125 42.6562V0H26.25V36.0938ZM13.125 22.9688L19.6875 29.5312V0H13.125V22.9688ZM39.375 49.2188L45.9375 55.7812V0H39.375V49.2188ZM52.5 55.7812L59.0625 49.2188V0.0512695H52.5V55.7812ZM68.9062 39.375L72.1875 42.6562V0H65.625V42.6562L68.9062 39.375ZM78.75 49.2188L85.3125 55.7812V0H78.75V49.2188ZM0 9.84375L6.5625 16.4062V0H0V9.84375ZM105 91.875V65.625H98.4375V80.647L68.9062 51.167L49.2188 70.8545L0 21.5845V30.9155L49.2188 80.083L68.9062 60.3955L93.772 85.3125H78.75V91.875H105Z" fill="white"/>
</svg>
