<svg width="85" height="85" viewBox="0 0 85 85" fill="none" xmlns="http://www.w3.org/2000/svg">
<path d="M79.6875 15.9375V10.625H71.7188V5.3125H66.4062V10.625H63.75C60.8202 10.625 58.4375 13.0103 58.4375 15.9375V21.25C58.4375 24.1798 60.8202 26.5625 63.75 26.5625H74.375V31.875H58.4375V37.1875H66.4062V42.5H71.7188V37.1875H74.375C77.3048 37.1875 79.6875 34.8048 79.6875 31.875V26.5625C79.6875 23.6353 77.3048 21.25 74.375 21.25H63.75V15.9375H79.6875ZM63.75 53.125V58.4375H70.6191L61.0938 67.9628L55.0056 61.872C54.5082 61.3745 53.8338 61.0946 53.1303 61.0938H53.125C52.4215 61.0946 51.7471 61.3745 51.2497 61.872L37.1875 75.9316L40.9434 79.6875L53.1277 67.5059L59.2158 73.5967C59.7139 74.0947 60.3894 74.3744 61.0938 74.3744C61.7981 74.3744 62.4736 74.0947 62.9717 73.5967L74.375 62.1934V69.0625H79.6875V53.125H63.75ZM10.625 79.6875H5.3125V66.4062C5.3125 56.1531 13.6531 47.8125 23.9062 47.8125H39.8438C45.127 47.8125 50.1766 50.0703 53.7014 54.0095L49.7436 57.553C48.4979 56.1599 46.9722 55.0455 45.2662 54.2825C43.5603 53.5194 41.7125 53.125 39.8438 53.125H23.9062C16.583 53.125 10.625 59.083 10.625 66.4062V79.6875ZM31.875 42.5C36.8064 42.5 41.5358 40.541 45.0228 37.054C48.5098 33.567 50.4688 28.8376 50.4688 23.9062C50.4688 18.9749 48.5098 14.2455 45.0228 10.7585C41.5358 7.27148 36.8064 5.3125 31.875 5.3125C26.9436 5.3125 22.2142 7.27148 18.7272 10.7585C15.2402 14.2455 13.2812 18.9749 13.2812 23.9062C13.2812 28.8376 15.2402 33.567 18.7272 37.054C22.2142 40.541 26.9436 42.5 31.875 42.5ZM31.875 10.625C35.3974 10.625 38.7755 12.0243 41.2663 14.515C43.757 17.0057 45.1562 20.3838 45.1562 23.9062C45.1562 27.4287 43.757 30.8068 41.2663 33.2975C38.7755 35.7882 35.3974 37.1875 31.875 37.1875C28.3526 37.1875 24.9745 35.7882 22.4837 33.2975C19.993 30.8068 18.5938 27.4287 18.5938 23.9062C18.5938 20.3838 19.993 17.0057 22.4837 14.515C24.9745 12.0243 28.3526 10.625 31.875 10.625Z" fill="white"/>
</svg>
