<svg width="99" height="99" viewBox="0 0 99 99" fill="none" xmlns="http://www.w3.org/2000/svg">
<path d="M78.9525 53.3774C79.1175 52.1399 79.2 50.8612 79.2 49.4999C79.2 48.1799 79.1175 46.8599 78.9113 45.6224L87.285 39.1049C87.6459 38.8075 87.8924 38.3942 87.9827 37.9353C88.073 37.4765 88.0013 37.0006 87.78 36.5887L79.86 22.8937C79.6257 22.4806 79.2533 22.1632 78.8082 21.9972C78.3632 21.8313 77.8739 21.8274 77.4263 21.9862L67.5675 25.9462C65.505 24.3787 63.3188 23.0587 60.885 22.0687L59.4 11.5912C59.327 11.119 59.087 10.6886 58.7237 10.3783C58.3604 10.068 57.8978 9.89825 57.42 9.89991H41.58C40.59 9.89991 39.8063 10.6012 39.6413 11.5912L38.1563 22.0687C35.7225 23.0587 33.495 24.4199 31.4738 25.9462L21.615 21.9862C20.7075 21.6562 19.6763 21.9862 19.1813 22.8937L11.3025 36.5887C10.8075 37.4549 10.9725 38.5274 11.7975 39.1049L20.1713 45.6224C19.965 46.8599 19.8 48.2212 19.8 49.4999C19.8 50.7787 19.8825 52.1399 20.0888 53.3774L11.715 59.8949C11.3542 60.1923 11.1076 60.6057 11.0174 61.0645C10.9271 61.5233 10.9987 61.9992 11.22 62.4112L19.14 76.1062C19.635 77.0137 20.6663 77.3024 21.5738 77.0137L31.4325 73.0537C33.495 74.6212 35.6813 75.9412 38.115 76.9312L39.6 87.4087C39.8063 88.3987 40.59 89.0999 41.58 89.0999H57.42C58.41 89.0999 59.235 88.3987 59.3588 87.4087L60.8438 76.9312C63.2775 75.9412 65.505 74.6212 67.5263 73.0537L77.385 77.0137C78.2925 77.3437 79.3238 77.0137 79.8188 76.1062L87.7388 62.4112C88.2338 61.5037 88.0275 60.4724 87.2438 59.8949L78.9525 53.3774ZM49.5 64.3499C41.3325 64.3499 34.65 57.6674 34.65 49.4999C34.65 41.3324 41.3325 34.6499 49.5 34.6499C57.6675 34.6499 64.35 41.3324 64.35 49.4999C64.35 57.6674 57.6675 64.3499 49.5 64.3499Z" fill="white"/>
</svg>
