<svg width="105" height="105" viewBox="0 0 105 105" fill="none" xmlns="http://www.w3.org/2000/svg">
<path fill-rule="evenodd" clip-rule="evenodd" d="M8.75 8.75C7.58968 8.75 6.47688 9.21094 5.65641 10.0314C4.83594 10.8519 4.375 11.9647 4.375 13.125V74.375C4.375 80.2988 8.29937 85.3037 13.6894 86.94C14.4918 89.5869 16.1098 91.9126 18.3125 93.5853C20.5153 95.2579 23.1901 96.1919 25.9553 96.254C28.7204 96.3161 31.4345 95.5031 33.7101 93.931C35.9857 92.359 37.7065 90.1082 38.6269 87.5H66.3731C67.2935 90.1082 69.0143 92.359 71.2899 93.931C73.5655 95.5031 76.2796 96.3161 79.0447 96.254C81.8099 96.1919 84.4847 95.2579 86.6874 93.5853C88.8902 91.9126 90.5082 89.5869 91.3106 86.94C94.0059 86.1223 96.3666 84.4592 98.0439 82.1965C99.7212 79.9338 100.626 77.1916 100.625 74.375V56.875C100.625 54.0023 100.059 51.1578 98.9599 48.5038C97.8605 45.8498 96.2492 43.4383 94.218 41.407C92.1867 39.3758 89.7752 37.7645 87.1212 36.6651C84.4672 35.5658 81.6227 35 78.75 35H61.25V13.125C61.25 11.9647 60.7891 10.8519 59.9686 10.0314C59.1481 9.21094 58.0353 8.75 56.875 8.75H8.75ZM66.3731 78.75H61.25V43.75H78.75C82.231 43.75 85.5694 45.1328 88.0308 47.5942C90.4922 50.0556 91.875 53.394 91.875 56.875V74.375C91.8748 75.5352 91.4137 76.6479 90.5931 77.4681C89.4746 75.1251 87.6864 73.1664 85.4545 71.8398C83.2226 70.5132 80.6475 69.8784 78.0548 70.0156C75.4621 70.1528 72.9683 71.056 70.8889 72.6107C68.8096 74.1654 67.238 76.302 66.3731 78.75ZM23.1569 80.0319C23.5605 79.614 24.0432 79.2807 24.577 79.0514C25.1107 78.8221 25.6848 78.7014 26.2657 78.6964C26.8467 78.6914 27.4228 78.802 27.9604 79.022C28.4981 79.242 28.9866 79.5669 29.3974 79.9776C29.8081 80.3884 30.133 80.8769 30.353 81.4146C30.573 81.9523 30.6836 82.5283 30.6786 83.1093C30.6735 83.6902 30.5529 84.2643 30.3236 84.798C30.0943 85.3318 29.761 85.8145 29.3431 86.2181C28.518 87.0151 27.4129 87.456 26.2657 87.4461C25.1186 87.4361 24.0213 86.976 23.2102 86.1648C22.399 85.3537 21.9389 84.2564 21.9289 83.1093C21.919 81.9621 22.3599 80.857 23.1569 80.0319ZM74.375 83.125C74.375 81.9647 74.8359 80.8519 75.6564 80.0314C76.4769 79.2109 77.5897 78.75 78.75 78.75C79.9103 78.75 81.0231 79.2109 81.8436 80.0314C82.6641 80.8519 83.125 81.9647 83.125 83.125C83.125 84.2853 82.6641 85.3981 81.8436 86.2186C81.0231 87.0391 79.9103 87.5 78.75 87.5C77.5897 87.5 76.4769 87.0391 75.6564 86.2186C74.8359 85.3981 74.375 84.2853 74.375 83.125Z" fill="white"/>
</svg>
