<svg width="96" height="96" viewBox="0 0 96 96" fill="none" xmlns="http://www.w3.org/2000/svg">
<path d="M64 67.9999V75.9999H8V67.9999C8 67.9999 8 51.9999 36 51.9999C64 51.9999 64 67.9999 64 67.9999ZM50 29.9999C50 27.231 49.1789 24.5242 47.6406 22.2219C46.1022 19.9196 43.9157 18.1252 41.3576 17.0656C38.7994 16.006 35.9845 15.7287 33.2687 16.2689C30.553 16.8091 28.0584 18.1425 26.1005 20.1004C24.1426 22.0583 22.8092 24.5529 22.269 27.2686C21.7288 29.9844 22.0061 32.7993 23.0657 35.3575C24.1253 37.9156 25.9197 40.1021 28.222 41.6405C30.5243 43.1788 33.2311 43.9999 36 43.9999C39.713 43.9999 43.274 42.5249 45.8995 39.8994C48.525 37.2739 50 33.7129 50 29.9999ZM63.76 51.9999C66.219 53.9029 68.2311 56.3216 69.6547 59.0859C71.0783 61.8502 71.8789 64.8929 72 67.9999V75.9999H88V67.9999C88 67.9999 88 53.4799 63.76 51.9999ZM60 15.9999C57.2471 15.9871 54.5552 16.81 52.28 18.3599C54.7098 21.7548 56.0162 25.825 56.0162 29.9999C56.0162 34.1748 54.7098 38.245 52.28 41.6399C54.5552 43.1898 57.2471 44.0127 60 43.9999C63.713 43.9999 67.274 42.5249 69.8995 39.8994C72.525 37.2739 74 33.7129 74 29.9999C74 26.2869 72.525 22.7259 69.8995 20.1004C67.274 17.4749 63.713 15.9999 60 15.9999Z" fill="white"/>
</svg>
